<svg xmlns="http://www.w3.org/2000/svg" width="16" height="17" viewBox="0 0 16 17" fill="none">
  <path d="M2.4694 9.96945L7.4694 4.96945C7.53908 4.89953 7.62187 4.84405 7.71304 4.8062C7.8042 4.76834 7.90194 4.74886 8.00065 4.74886C8.09936 4.74886 8.1971 4.76834 8.28827 4.8062C8.37943 4.84405 8.46222 4.89953 8.5319 4.96945L13.5319 9.96945C13.6728 10.1103 13.752 10.3014 13.752 10.5007C13.752 10.7 13.6728 10.8911 13.5319 11.0319C13.391 11.1728 13.1999 11.252 13.0007 11.252C12.8014 11.252 12.6103 11.1728 12.4694 11.0319L8.00003 6.56257L3.53065 11.0326C3.38976 11.1735 3.19866 11.2526 2.9994 11.2526C2.80015 11.2526 2.60905 11.1735 2.46815 11.0326C2.32726 10.8917 2.2481 10.7006 2.2481 10.5013C2.2481 10.3021 2.32726 10.111 2.46815 9.97007L2.4694 9.96945Z" fill="black"/>
</svg>